inDegrees=no
num_controls=7
num_derivatives=13
num_iterations=163
num_multipliers=7
num_parameters=0
num_slacks=7
num_states=26
objective=0.497109
objective_accelerations=0.042098
objective_balance=0.003556
objective_effort=0.039620
objective_height=0.406005
objective_ligament=0.005830
solver_duration=1843.969575
status=Solve_Succeeded
success=true
DataType=double
version=3
OpenSimVersion=4.5
endheader
time	/jointset/ground_pelvis/pelvis_tilt/value	/jointset/ground_pelvis/pelvis_tx/value	/jointset/ground_pelvis/pelvis_ty/value	/jointset/hip_r/hip_flexion_r/value	/jointset/hip_r/hip_adduction_r/value	/jointset/hip_r/hip_rotation_r/value	/jointset/back/lumbar_extension/value	/jointset/patellofemoral_r/patellar_flexion_r/value	/jointset/knee_r/knee_flexion_r/value	/jointset/knee_r/knee_adduction_r/value	/jointset/knee_r/knee_rotation_r/value	/jointset/ankle_r/ankle_angle_r/value	/jointset/subtalar_r/subtalar_angle_r/value	/jointset/ground_pelvis/pelvis_tilt/speed	/jointset/ground_pelvis/pelvis_tx/speed	/jointset/ground_pelvis/pelvis_ty/speed	/jointset/hip_r/hip_flexion_r/speed	/jointset/hip_r/hip_adduction_r/speed	/jointset/hip_r/hip_rotation_r/speed	/jointset/back/lumbar_extension/speed	/jointset/patellofemoral_r/patellar_flexion_r/speed	/jointset/knee_r/knee_flexion_r/speed	/jointset/knee_r/knee_adduction_r/speed	/jointset/knee_r/knee_rotation_r/speed	/jointset/ankle_r/ankle_angle_r/speed	/jointset/subtalar_r/subtalar_angle_r/speed	/forceset/tau_hip_flexion_r	/forceset/tau_hip_adduction_r	/forceset/tau_hip_rotation_r	/forceset/tau_knee_flexion_r	/forceset/tau_ankle_angle_r	/forceset/tau_subtalar_angle_r	/forceset/tau_lumbar_extension	lambda_cid13_p0	lambda_cid14_p0	lambda_cid14_p1	lambda_cid14_p2	lambda_cid14_p3	lambda_cid14_p4	lambda_cid14_p5	/jointset/ground_pelvis/pelvis_tilt/accel	/jointset/ground_pelvis/pelvis_tx/accel	/jointset/ground_pelvis/pelvis_ty/accel	/jointset/hip_r/hip_flexion_r/accel	/jointset/hip_r/hip_adduction_r/accel	/jointset/hip_r/hip_rotation_r/accel	/jointset/back/lumbar_extension/accel	/jointset/patellofemoral_r/patellar_flexion_r/accel	/jointset/knee_r/knee_flexion_r/accel	/jointset/knee_r/knee_adduction_r/accel	/jointset/knee_r/knee_rotation_r/accel	/jointset/ankle_r/ankle_angle_r/accel	/jointset/subtalar_r/subtalar_angle_r/accel	gamma_cid13_p0	gamma_cid14_p0	gamma_cid14_p1	gamma_cid14_p2	gamma_cid14_p3	gamma_cid14_p4	gamma_cid14_p5
1	-0.2469749690584725	0.01242461825561856	0.697242658541271	1.308194322017831	-0.2477623387280359	0.01111636435362786	-0.4363127991831388	1.304246003042469	1.304246003042469	0.0281584698496046	0.1745289598237074	0.4363181765966926	0.08230419466082969	-0.0007438905585739838	0.004279849588794487	0.0149193659379359	-0.04044363746184746	0.001051554476561311	-0.01734743140215019	0.002483752044649233	-0.04824171166506082	-0.04824171166506067	-0.005770895020388987	-4.268213213401194e-05	-0.008566244334185456	-0.0008214697380660011	-0.2444903148975006	0.01112941968199014	0.01937054513090339	-0.4929046044882999	-0.006717915380267605	0.004589599145881486	0.2759717463466921	-0.05193730668635659	-50.66918412232461	-6.567686211821658	1.151962527299605	16.54294266917754	-792.1524057439799	64.87460719034907	1.146014480248706	0.09520670485249798	1.590931756309171	-4.926197152623765	0.01361222689121215	-1.116470675465508	0.2041115615680717	-4.985288684728847	-4.98528868472881	0.2151372205252789	0.00635318323867352	-1.429281025253176	-0.4553969983079999	7.117532699966562e-10	-3.587240703488447e-09	7.457972943875798e-09	4.214041025779404e-09	7.756599989254634e-09	-5.364572319390043e-09	5.680854209653722e-09
1.01	-0.2469262009682897	0.01247223930444119	0.6974712293384775	1.307544805826866	-0.2477510332919273	0.01088754783370808	-0.4362756207358106	1.30351447825567	1.303514478255671	0.0281117614918144	0.1745284892552205	0.4361611092029315	0.08227340905764398	0.01045389487434234	0.00525321693750889	0.03079139921204535	-0.08942872493835538	0.001210164362675484	-0.02841364912889076	0.005091155008572082	-0.09807605333912248	-0.09807605333912239	-0.003564931907385196	-5.0210167324259e-05	-0.02284755022311892	-0.005333842062163613	-0.2454029814514648	0.01139138698000353	0.01936394732734358	-0.4919848732021356	-0.007838126854598405	0.004688674587181567	0.2768351336312323	-0.05343101032594448	-51.03980464548147	-6.585735229588393	1.150481762373947	16.68956926631246	-792.491425434994	64.77062882248683	1.100118993095455	0.09973113378584508	1.584828412953319	-4.880032894552703	0.01708182821327812	-1.101364810266509	0.3099373019113411	-4.98442824222658	-4.984428242226622	0.2242046044796892	-0.004120304788010997	-1.427603786769233	-0.4488822345586282	9.317632706614086e-10	-2.416830911039558e-09	1.879517939854784e-08	6.21489401508577e-09	4.382297331842953e-09	-7.757397544754525e-09	1.732773379690319e-08
1.02	-0.2467667633401205	0.01252985990353194	0.6978584183284233	1.306406365091259	-0.2477381224652091	0.01054813563872225	-0.4362081917312206	1.302284225785435	1.302284225785435	0.02808728851471302	0.1745279805048022	0.4358612190670695	0.08219755475419767	0.02139001703855223	0.006279759642416064	0.04664300448581025	-0.1382285463904004	0.001372632598460706	-0.03946656641515898	0.008533863496772194	-0.1479872483524546	-0.1479872483524548	-0.001323818882710607	-5.031851811910426e-05	-0.03713079275428464	-0.009835209790181348	-0.2463156480054301	0.01165335427801341	0.01935734952378312	-0.4910651419159716	-0.008958338328930135	0.004787750028475363	0.2776985209157718	-0.056300650404278	-51.42122034968591	-6.603880259587839	1.146967096184138	16.85830919396641	-793.0012659818241	64.6744253689909	1.093681826507422	0.1058417760910507	1.586846156240259	-4.889143947731188	0.01438389682542056	-1.113810587371041	0.3711726664235191	-5.000659352582933	-5.000659352582947	0.2221672028594382	0.007837120117758714	-1.429668353699632	-0.4531960790920286	1.196911923515133e-09	-2.522849104116891e-09	2.744287172293761e-08	9.322099101489467e-09	3.999189499114718e-09	-1.018902548284433e-08	2.519694039476254e-08
1.03	-0.2464992308236422	0.01259805596716833	0.6984039627684551	1.304780874076138	-0.2477235524741635	0.01009830183433148	-0.4361022005960273	1.30055457723744	1.30055457723744	0.02808539972545933	0.1745274917571133	0.4354185344439241	0.08207679753431131	0.03207435857797238	0.007372771170583966	0.06245629282547178	-0.1868336298973126	0.001543933156131134	-0.05049348141016723	0.01280306218412328	-0.1979451208810649	-0.1979451208810651	0.0009513347241169705	-4.881776342511027e-05	-0.05140169854964725	-0.01430818144554653	-0.2468624860448709	0.01180149953776729	0.01936443353900909	-0.4900206458549177	-0.009602612365695564	0.004860683264581444	0.2782909315294879	-0.06106990425327303	-51.62280228940785	-6.596486523367934	1.133207203376018	16.85641552721505	-793.0954138667953	64.60038216438338	1.049491811731	0.1130292812133194	1.577129029618015	-4.840786179185717	0.01889157588973554	-1.096126823858091	0.47559826621746	-4.993750442306018	-4.993750442306001	0.2309843853625281	-0.003896961712504639	-1.425138394208242	-0.4431324986760447	1.462521174860583e-09	-2.641892072556743e-09	3.60631200255898e-08	1.244059349500641e-08	3.646604062556739e-09	-1.262104936698236e-08	3.302759930905666e-08
1.04	-0.2461261185929546	0.01267758183409311	0.6991073518632412	1.302670413100545	-0.2477071917894106	0.009538399906331327	-0.4359493565146947	1.298325270116298	1.298325270116296	0.02810642146142804	0.1745269773139993	0.4348332734224745	0.08191155363988786	0.04250595988025931	0.008545720300093786	0.07821193543668585	-0.235222538484805	0.001730771339877225	-0.06148019113687082	0.01790445272453599	-0.2479189629819129	-0.2479189629819127	0.003258286161669263	-5.545760303929539e-05	-0.06564607241515664	-0.01873254469760357	-0.2474093240843118	0.01194964479751872	0.01937151755423398	-0.4889761497938639	-0.0102468864024617	0.00493361650068314	0.2788833421432042	-0.06848822442868165	-51.83517527872203	-6.589058641484915	1.117244816521357	16.87565164866274	-793.3608919196884	64.53469034038847	1.043133779080784	0.121829296359431	1.575317010550763	-4.845908963847217	0.0174914220405517	-1.105769533710112	0.5376110370358421	-5.00385326703047	-5.003853267030429	0.228526769004381	0.00620900125612816	-1.424361967728991	-0.4434743984304065	1.716676990207107e-09	-2.371255110203016e-09	4.383271343681228e-08	1.525174684496016e-08	2.582620025040592e-09	-1.470223271532831e-08	4.024071704687618e-08
1.05	-0.2456498961643212	0.01276923846305523	0.699967938612241	1.300077226737467	-0.247688879000242	0.00886885445755521	-0.4357414580881859	1.295596255201151	1.29559625520115	0.02815066656828333	0.1745263731842604	0.4341056757879184	0.08170232279848398	0.05269934439793092	0.009799123505229101	0.09388837993941754	-0.2833672611312071	0.001935922297093184	-0.07241811346215424	0.02380566815604845	-0.2978753293251913	-0.2978753293251911	0.00559564837236755	-6.768686995177161e-05	-0.07987128511056615	-0.02310253277284494	-0.2476245955725613	0.01204369426745681	0.01938918022525165	-0.4876103680395729	-0.01073486317817381	0.005001356732171911	0.2791889032390826	-0.07951311174299086	-51.96849761402022	-6.565037491601574	1.092917218201851	16.85738206976471	-793.1389891528612	64.46267605237564	1.001564308335486	0.1291238228231743	1.561249631156665	-4.791632570737738	0.02265198865787684	-1.086188301149686	0.6359421330262878	-4.990225106295614	-4.990225106295638	0.2370834272504621	-0.005280180436116394	-1.42127766265992	-0.4320869582757114	1.970474885678666e-09	-2.08844065001199e-09	5.157572388267759e-08	1.805329578730255e-08	1.496404781244507e-09	-1.677245229693077e-08	4.743453662293086e-08
1.06	-0.2450729151864653	0.0128738347221152	0.7009847780984725	1.297004017416785	-0.2476683896902818	0.008090252841683205	-0.435470634439998	1.292367937264908	1.292367937264906	0.02821843379327576	0.1745255785038985	0.4332358906779656	0.08144972688708678	0.06265766972460722	0.01113364631966389	0.1094624828830369	-0.3312271300056513	0.002166075498139573	-0.08329142455592713	0.03048949706025388	-0.3477795672012334	-0.3477795672012334	0.007962709788982411	-9.356772771078466e-05	-0.09408356749449542	-0.02740555869627518	-0.24783986706081	0.01213774373739349	0.019406842896268	-0.4862445862852818	-0.01122283995388638	0.00506909696365819	0.2794944643349622	-0.09531967107047634	-52.11253599520553	-6.540773907604425	1.066131008554373	16.85872759064104	-793.0879436429101	64.39987210793029	0.9961219408817258	0.1380532182193212	1.554848698728309	-4.788938209455608	0.02249187080663515	-1.092847287408015	0.6941337315744364	-4.993427573583216	-4.993427573583237	0.2344666101876958	0.00347868308682825	-1.421775905432951	-0.430081968068188	2.253373377307203e-09	-2.015463254488908e-09	5.630437176749651e-08	2.050394938052499e-08	1.131133711197182e-09	-1.874862058166998e-08	5.160182680666526e-08
1.07	-0.2443974735284044	0.01299219825674863	0.7021567820378382	1.293453688416711	-0.2476454784730956	0.007203236868089861	-0.4351291807007027	1.288640938495036	1.288640938495037	0.02831000975151215	0.1745245012974144	0.4322240430011097	0.0811544376285389	0.07239357674276188	0.01255423163175184	0.1249143219233545	-0.3787820922883254	0.002421406216181515	-0.09409768303296255	0.03792370852183086	-0.3976009328479411	-0.3976009328479411	0.01035732353645586	-0.0001243626475275681	-0.1082837256697396	-0.03163826784307609	-0.2476672385209243	0.0121208061865972	0.01943581227638147	-0.4846692706205198	-0.01139037392643119	0.005130297695763876	0.2794762765849453	-0.1172875089260168	-52.12455397771187	-6.488801989350186	1.026437338057276	16.76565336541733	-792.5641385806609	64.3614173617722	0.9567631527996052	0.1463369976178529	1.53674987484047	-4.730288151241006	0.02784525192080868	-1.072404827184014	0.7864335119050717	-4.973603483023648	-4.973603483023632	0.2426915106660266	-0.006724004909243807	-1.418801911399188	-0.4177491360325452	2.537819772986643e-09	-1.953647404958803e-09	6.087268121821719e-08	2.293593832751764e-08	8.04210735498201e-10	-2.071978613785263e-08	5.560813138442515e-08
1.08	-0.2436257851860578	0.01312522280648579	0.7034825840412383	1.289429507211097	-0.2476198556328053	0.006208580369859186	-0.4347097111151002	1.284416303584135	1.284416303584137	0.02842567839795158	0.1745230430566539	0.4310702605149356	0.08081724452891373	0.08190700658160648	0.01406584934040862	0.1402220956899473	-0.4259975711137085	0.00270840011893669	-0.1048195294833065	0.04609266632163692	-0.447306795407013	-0.4473067954070128	0.01278124742948372	-0.0001697745830762612	-0.1224705293581456	-0.03578632691173752	-0.2474946099810382	0.01210386863580031	0.01946478165649389	-0.4830939549557579	-0.01155790789897618	0.005191498427868512	0.2794580888349293	-0.1470078463202704	-52.1471561877137	-6.43632441920474	0.983968807710869	16.69064485616361	-792.2094938846974	64.3332374442659	0.9516265050197157	0.1562596975330829	1.526035643983341	-4.721041517997409	0.02882450774927805	-1.075964882069719	0.8410829992202523	-4.970326956056055	-4.970326956056055	0.2403286392985789	0.0005552799404564372	-1.419105008065341	-0.4131519524403018	2.906135535382074e-09	-1.86241191704134e-09	6.082330297799459e-08	2.501937407024314e-08	9.095304466475279e-10	-2.23654759638636e-08	5.530777714315233e-08
1.09	-0.2427600152132988	0.01327382505497585	0.704960676197753	1.284934931279714	-0.2475912184877302	0.005107102799928615	-0.4342050007572511	1.27969529211211	1.279695292112112	0.02856571970859034	0.1745211289530856	0.4297746573322644	0.08043897390955632	0.09121255400762666	0.01567039422442327	0.1553651286201986	-0.4728509135944433	0.003025238966042473	-0.1154587984536171	0.05496389067988424	-0.4968651493311742	-0.4968651493311737	0.01523187486507008	-0.0002154041816690114	-0.1366489459857605	-0.03985163514493278	-0.2469730572662903	0.01210373991111804	0.01950122656710186	-0.4812319644494508	-0.01151715271694959	0.00519258795741271	0.2791335780860319	-0.1862634918933878	-52.07738467264117	-6.398579867566523	0.9493325055922093	16.5682172264818	-791.3724832984473	64.23365363126308	0.9148546824383713	0.1649211759024187	1.503751241871734	-4.657474942540553	0.03405169852160306	-1.055332331309281	0.9273149688874124	-4.944037823562537	-4.944037823562495	0.2481652601057224	-0.007467135355527239	-1.417038272881672	-0.4007831395493499	3.280832662636331e-09	-1.768937978377012e-09	6.042257893520023e-08	2.707628946047006e-08	1.047738188317919e-09	-2.398640133214412e-08	5.467974233956184e-08
